# xmcd CD database file
#
# Track frame offsets:
#	150
#	18150
#	48037
#	80442
#	116942
#	141302
#
# Disc length: 2253 seconds
#
# Revision: 0
# Processed by: cddbd v1.5.2PL0 Copyright (c) Steve Scherf et al.
# Submitted via: CDex 1.70beta3
#
DISCID=4708cb06
DTITLE=Tom Scott - Rural Still Life
DYEAR=1968
DGENRE=Jazz
TTITLE0=Rural Still Life #26
TTITLE1=Song #1
TTITLE2=Freak In
TTITLE3=With Respect To Coltrane
TTITLE4=Juss Messin' Around
TTITLE5=Body And Soul
EXTD=YEAR: 1968
EXTT0=
EXTT1=
EXTT2=
EXTT3=
EXTT4=
EXTT5=
PLAYORDER=
